<svg width="154" height="129" viewBox="0 0 154 129" fill="none" xmlns="http://www.w3.org/2000/svg">
<g filter="url(#filter0_d_1_10099)">
<g style="mix-blend-mode:multiply" opacity="0.5">
<path d="M134.297 82.3301H133.239L120.842 77.3499L125.933 74.9482L134.297 82.3246V82.3301ZM111.476 82.7718L123.873 87.7519H124.931L116.561 80.3756L111.47 82.7773L111.476 82.7718ZM102.115 88.1881L114.512 93.1683H115.57L107.2 85.7864L102.109 88.1881H102.115ZM92.7538 93.6045L105.151 98.5846H106.209L97.8448 91.2082L92.7538 93.61V93.6045ZM83.3927 99.0208L95.7896 104.001H96.8475L88.4782 96.6246L83.3872 99.0263L83.3927 99.0208ZM74.6543 104.145L39.469 58.5667L13.1049 73.8218L18.8956 77.1732L12.5264 80.8559L15.2041 82.4074H16.0581L19.7331 77.6591L28.2457 82.5841L21.8764 86.2667L24.5541 87.8182H25.4082L29.0832 83.0699L37.5902 87.9893L31.2209 91.672L33.8987 93.2235H34.7527L38.4277 88.4752L46.9127 93.3836L40.5434 97.0663L43.2212 98.6177H44.0752L47.7502 93.8695L56.2572 98.7889L49.8879 102.472L52.5657 104.023H53.4197L57.0947 99.2748L65.5907 104.194L59.2215 107.877L61.8992 109.428H62.7532L66.4282 104.68L66.5659 104.757H74.803L86.4176 109.423H87.4754L79.1116 102.046L74.6487 104.15L74.6543 104.145Z" fill="#434C54"/>
</g>
<path d="M71.1835 45.8623L60.9629 39.949V38.9773L71.1835 42.682V45.8623Z" fill="#BEB9B0"/>
<path d="M73.7842 44.3604L71.1836 45.8622V42.682L73.7842 41.1802V44.3604Z" fill="#E9E4DB"/>
<path d="M71.1835 42.682L60.9629 38.9772L63.5635 37.4755L73.7841 41.1802L71.1835 42.682Z" fill="#F6F2ED"/>
<path d="M61.8221 51.2787L51.6016 45.3654V44.3937L61.8221 48.0984V51.2787Z" fill="#BEB9B0"/>
<path d="M64.4174 49.7768L61.8223 51.2786V48.0983L64.4174 46.5966V49.7768Z" fill="#E9E4DB"/>
<path d="M61.8221 48.0984L51.6016 44.3936L54.1967 42.8918L64.4172 46.5966L61.8221 48.0984Z" fill="#F6F2ED"/>
<path d="M52.4558 56.6949L42.2407 50.7817V49.8099L52.4558 53.5147V56.6949Z" fill="#BEB9B0"/>
<path d="M55.0562 55.1931L52.4556 56.6948V53.5146L55.0562 52.0128V55.1931Z" fill="#E9E4DB"/>
<path d="M52.4558 53.5146L42.2407 49.8099L44.8358 48.3081L55.0564 52.0129L52.4558 53.5146Z" fill="#F6F2ED"/>
<path d="M43.0946 62.1113L32.874 56.1981V55.2263L43.0946 58.9311V62.1113Z" fill="#BEB9B0"/>
<path d="M45.6898 60.6094L43.0947 62.1112V58.931L45.6898 57.4292V60.6094Z" fill="#E9E4DB"/>
<path d="M43.0946 58.931L32.874 55.2263L35.4691 53.7245L45.6897 57.4292L43.0946 58.931Z" fill="#F6F2ED"/>
<path d="M33.7338 67.5277L23.5132 61.6144V60.6427L33.7338 64.353V67.5277Z" fill="#BEB9B0"/>
<path d="M36.329 66.0259L33.7339 67.5277V64.353L36.329 62.8512V66.0259Z" fill="#E9E4DB"/>
<path d="M33.7338 64.3529L23.5132 60.6426L26.1083 59.1409L36.3289 62.8511L33.7338 64.3529Z" fill="#F6F2ED"/>
<path d="M24.3671 72.9495L14.1465 67.0362V66.059L24.3671 69.7692V72.9495Z" fill="#BEB9B0"/>
<path d="M26.9623 71.4422L24.3672 72.9495V69.7692L26.9623 68.2675V71.4422Z" fill="#E9E4DB"/>
<path d="M24.3671 69.7692L14.1465 66.0589L16.7471 64.5571L26.9622 68.2674L24.3671 69.7692Z" fill="#F6F2ED"/>
<path d="M125.928 72.8777L136.149 66.9644V65.9927L125.928 69.6974V72.8777Z" fill="#E9E4DB"/>
<path d="M123.333 71.3704L125.928 72.8777V69.6975L123.333 68.1957V71.3704Z" fill="#E9E4DB"/>
<path d="M125.928 69.6974L136.149 65.9926L133.554 64.4854L123.333 68.1956L125.928 69.6974Z" fill="#F6F2ED"/>
<path d="M116.595 67.4724L126.815 61.5591V60.5874L116.595 64.2922V67.4724Z" fill="#E9E4DB"/>
<path d="M113.994 65.9705L116.595 67.4723V64.2921L113.994 62.7903V65.9705Z" fill="#E9E4DB"/>
<path d="M116.595 64.2921L126.815 60.5873L124.215 59.0856L113.994 62.7903L116.595 64.2921Z" fill="#F6F2ED"/>
<path d="M107.256 62.0726L117.476 56.1594V55.1876L107.256 58.8924V62.0726Z" fill="#E9E4DB"/>
<path d="M104.661 60.5707L107.256 62.0725V58.8923L104.661 57.3905V60.5707Z" fill="#E9E4DB"/>
<path d="M107.256 58.8923L117.476 55.1876L114.881 53.6858L104.661 57.3905L107.256 58.8923Z" fill="#F6F2ED"/>
<path d="M97.9165 56.6673L108.137 50.7541V49.7823L97.9165 53.4926V56.6673Z" fill="#E9E4DB"/>
<path d="M95.3213 55.1655L97.9164 56.6672V53.4925L95.3213 51.9852V55.1655Z" fill="#E9E4DB"/>
<path d="M97.9164 53.4926L108.137 49.7823L105.542 48.2805L95.3213 51.9853L97.9164 53.4926Z" fill="#F6F2ED"/>
<path d="M88.583 51.2676L98.7981 45.3543V44.3826L88.583 48.0873V51.2676Z" fill="#E9E4DB"/>
<path d="M85.9824 49.7657L88.583 51.2675V48.0872L85.9824 46.5854V49.7657Z" fill="#E9E4DB"/>
<path d="M88.583 48.0873L98.7981 44.3825L96.203 42.8807L85.9824 46.5855L88.583 48.0873Z" fill="#F6F2ED"/>
<path d="M79.2441 45.8623L89.4647 39.949V38.9773L79.2441 42.6876V45.8623Z" fill="#E9E4DB"/>
<path d="M76.6489 44.3605L79.244 45.8623V42.6876L76.6489 41.1858V44.3605Z" fill="#E9E4DB"/>
<path d="M79.244 42.6875L89.4646 38.9772L86.864 37.4755L76.6489 41.1857L79.244 42.6875Z" fill="#F6F2ED"/>
<path d="M75.1228 104.752L22.2017 74.1365V65.8933L75.1228 69.4324V104.752Z" fill="#2B232D"/>
<path d="M128.044 74.1365L75.1226 104.752V69.4324L128.044 65.8933V74.1365Z" fill="#352B37"/>
<path d="M75.1228 96.5086L22.2017 65.8933L75.1228 35.2725L128.044 65.8933L75.1228 96.5086Z" fill="#423746"/>
<path d="M36.2515 65.8933L75.1227 43.3998L113.994 65.8933L75.1227 88.3813L36.2515 65.8933Z" fill="#201323"/>
<path d="M62.7588 109.423L72.9794 103.51V100.335L62.7588 108.451V109.423Z" fill="#E9E4DB"/>
<path d="M60.1636 107.921L62.7587 109.423V108.451L60.1636 106.949V107.921Z" fill="#BEB9B0"/>
<path d="M62.7587 108.451L72.9792 100.335L70.3842 98.8275L60.1636 106.949L62.7587 108.451Z" fill="#F6F2ED"/>
<path d="M53.4199 104.023L63.6405 98.1098V94.9296L53.4199 103.051V104.023Z" fill="#E9E4DB"/>
<path d="M50.8247 102.521L53.4198 104.023V103.051L50.8247 101.544V102.521Z" fill="#BEB9B0"/>
<path d="M53.4198 103.051L63.6404 94.9295L61.0453 93.4277L50.8247 101.544L53.4198 103.051Z" fill="#F6F2ED"/>
<path d="M44.0864 98.6177L54.3015 92.7045V89.5298L44.0864 97.646V98.6177Z" fill="#E9E4DB"/>
<path d="M41.4858 97.1159L44.0864 98.6177V97.6459L41.4858 96.1442V97.1159Z" fill="#BEB9B0"/>
<path d="M44.0864 97.646L54.3015 89.5297L51.7064 88.028L41.4858 96.1442L44.0864 97.646Z" fill="#F6F2ED"/>
<path d="M34.7476 93.218L44.9681 87.3048V84.1245L34.7476 92.2463V93.218Z" fill="#E9E4DB"/>
<path d="M32.1523 91.7161L34.7474 93.2179V92.2462L32.1523 90.7444V91.7161Z" fill="#BEB9B0"/>
<path d="M34.7474 92.2462L44.968 84.1245L42.3674 82.6227L32.1523 90.7444L34.7474 92.2462Z" fill="#F6F2ED"/>
<path d="M25.4082 87.8127L35.6288 81.8994V78.7247L25.4082 86.841V87.8127Z" fill="#E9E4DB"/>
<path d="M22.813 86.3108L25.4081 87.8126V86.8409L22.813 85.3391V86.3108Z" fill="#BEB9B0"/>
<path d="M25.4081 86.8409L35.6287 78.7247L33.0336 77.2229L22.813 85.3391L25.4081 86.8409Z" fill="#F6F2ED"/>
<path d="M16.0693 82.4129L26.2899 76.4997V73.3195L16.0693 81.4412V82.4129Z" fill="#E9E4DB"/>
<path d="M13.4741 80.9111L16.0692 82.4129V81.4411L13.4741 79.9393V80.9111Z" fill="#BEB9B0"/>
<path d="M16.0692 81.4411L26.2898 73.3194L23.6947 71.8176L13.4741 79.9394L16.0692 81.4411Z" fill="#F6F2ED"/>
<path d="M134.297 82.33L124.077 76.4168V73.2421L134.297 81.3583V82.33Z" fill="#BEB9B0"/>
<path d="M136.892 80.8282L134.297 82.33V81.3582L136.892 79.8564V80.8282Z" fill="#E9E4DB"/>
<path d="M134.297 81.3583L124.077 73.242L126.672 71.7347L136.892 79.8565L134.297 81.3583Z" fill="#F6F2ED"/>
<path d="M124.936 87.7464L114.715 81.8332V78.6584L124.936 86.7747V87.7464Z" fill="#BEB9B0"/>
<path d="M127.531 86.2446L124.936 87.7464V86.7746L127.531 85.2728V86.2446Z" fill="#E9E4DB"/>
<path d="M124.936 86.7746L114.715 78.6584L117.31 77.1566L127.531 85.2728L124.936 86.7746Z" fill="#F6F2ED"/>
<path d="M115.57 93.1682L105.349 87.2549V84.0747L115.57 92.1909V93.1682Z" fill="#BEB9B0"/>
<path d="M118.165 91.6608L115.57 93.1681V92.1909L118.165 90.6891V91.6608Z" fill="#E9E4DB"/>
<path d="M115.57 92.1909L105.349 84.0747L107.944 82.5729L118.165 90.6891L115.57 92.1909Z" fill="#F6F2ED"/>
<path d="M106.208 98.5846L95.9878 92.6713V89.4911L106.208 97.6128V98.5846Z" fill="#BEB9B0"/>
<path d="M108.804 97.0827L106.208 98.5845V97.6128L108.804 96.1055V97.0827Z" fill="#E9E4DB"/>
<path d="M106.208 97.6128L95.9878 89.491L98.5829 87.9893L108.803 96.1055L106.208 97.6128Z" fill="#F6F2ED"/>
<path d="M96.8417 104.001L86.6211 98.0877V94.9075L96.8417 103.029V104.001Z" fill="#BEB9B0"/>
<path d="M99.4369 102.499L96.8418 104.001V103.029L99.4369 101.527V102.499Z" fill="#E9E4DB"/>
<path d="M96.8417 103.029L86.6211 94.9074L89.2217 93.4056L99.4368 101.527L96.8417 103.029Z" fill="#F6F2ED"/>
<path d="M87.4808 109.417L77.2603 103.504V100.324L87.4808 108.445V109.417Z" fill="#BEB9B0"/>
<path d="M90.076 107.915L87.481 109.417V108.445L90.076 106.944V107.915Z" fill="#E9E4DB"/>
<path d="M87.4808 108.445L77.2603 100.324L79.8553 98.8219L90.0759 106.944L87.4808 108.445Z" fill="#F6F2ED"/>
<path opacity="0.1" d="M53.3647 68.9466L71.2108 79.2713C71.624 79.5142 71.624 79.7516 71.2108 79.9946L68.6873 81.4577C68.2741 81.7006 67.8554 81.7006 67.4421 81.4577L49.5961 71.133C49.1828 70.89 49.1828 70.6526 49.5961 70.4097L52.1195 68.9466C52.5328 68.7036 52.9515 68.7036 53.3647 68.9466ZM69.5468 60.3058C71.2273 60.2948 72.8527 60.742 74.4175 61.6475L83.8281 67.0914C85.3929 67.9969 86.1642 68.9355 86.1477 69.9073C86.1257 70.879 85.3378 71.8176 83.773 72.7231L80.4451 74.65C78.8804 75.5555 77.255 76.0138 75.5745 76.0248C73.894 76.0358 72.2687 75.5886 70.7039 74.6831L61.2932 69.2392C59.7285 68.3337 58.9571 67.3951 58.9736 66.4234C58.9902 65.4516 59.7836 64.513 61.3483 63.6075L64.6762 61.6806C66.241 60.7751 67.8609 60.3169 69.5468 60.3058ZM70.8251 63.9278C70.1915 63.5634 69.6075 63.3812 69.073 63.3756C68.5386 63.3756 67.9545 63.5578 67.3209 63.9278L65.2107 65.148C64.5771 65.5124 64.2685 65.8492 64.274 66.1528C64.285 66.4565 64.6046 66.7933 65.2382 67.1577L74.2962 72.3973C74.9299 72.7673 75.5139 72.9495 76.0318 72.955C76.5608 72.9605 77.1338 72.7783 77.7674 72.4139L79.8776 71.1937C80.5112 70.8293 80.8253 70.4925 80.8253 70.1778C80.8253 69.8631 80.5112 69.5318 79.8776 69.1619L70.8196 63.9222L70.8251 63.9278ZM83.4149 50.8369L72.1915 57.3299C71.7728 57.5728 71.7728 57.8102 72.1915 58.0532L74.2081 59.2181C74.6213 59.4611 75.0401 59.4611 75.4588 59.2181L78.8418 57.2581C79.0567 57.1311 79.2826 57.1311 79.4974 57.2581L94.3738 65.8657C94.787 66.1087 95.2167 66.1031 95.652 65.8492L98.1479 64.4081C98.5612 64.1652 98.5612 63.9278 98.1479 63.6848L83.2716 55.0772C83.0567 54.9502 83.0622 54.8177 83.2992 54.6797L86.6822 52.7196C87.0954 52.4767 87.0954 52.2393 86.6822 51.9964L84.6656 50.8314C84.2524 50.5884 83.8336 50.5884 83.4204 50.8314L83.4149 50.8369Z" fill="#2874C6"/>
<path opacity="0.2" d="M53.3647 66.1805L71.2108 76.5052C71.624 76.7481 71.624 76.9855 71.2108 77.2285L68.6873 78.6916C68.2741 78.9345 67.8554 78.9345 67.4421 78.6916L49.5961 68.3669C49.1828 68.1239 49.1828 67.8865 49.5961 67.6436L52.1195 66.1805C52.5328 65.9375 52.9515 65.9375 53.3647 66.1805ZM69.5468 57.5397C71.2273 57.5287 72.8527 57.9759 74.4175 58.8814L83.8281 64.3253C85.3929 65.2308 86.1642 66.1694 86.1477 67.1412C86.1257 68.1184 85.3378 69.0515 83.773 69.957L80.4451 71.8839C78.8804 72.7894 77.255 73.2477 75.5745 73.2587C73.894 73.2697 72.2687 72.8225 70.7039 71.917L61.2932 66.4731C59.7285 65.5676 58.9571 64.629 58.9736 63.6573C58.9957 62.6855 59.7836 61.7469 61.3483 60.8414L64.6762 58.9145C66.241 58.009 67.8609 57.5508 69.5468 57.5397ZM70.8251 61.1616C70.1915 60.7972 69.6075 60.615 69.073 60.6095C68.5386 60.6095 67.9545 60.7917 67.3209 61.1616L65.2107 62.3818C64.5771 62.7462 64.2685 63.083 64.274 63.3867C64.285 63.6904 64.6046 64.0272 65.2382 64.3916L74.2962 69.6312C74.9299 70.0012 75.5139 70.1834 76.0318 70.1889C76.5608 70.1944 77.1338 70.0122 77.7674 69.6478L79.8776 68.4276C80.5112 68.0632 80.8253 67.7264 80.8253 67.4117C80.8253 67.097 80.5112 66.7657 79.8776 66.3958L70.8196 61.1561L70.8251 61.1616ZM83.4149 48.0708L72.1915 54.5638C71.7728 54.8067 71.7728 55.0441 72.1915 55.287L74.2081 56.452C74.6213 56.695 75.0401 56.695 75.4588 56.452L78.8418 54.492C79.0567 54.365 79.2826 54.365 79.4974 54.492L94.3738 63.0996C94.787 63.3425 95.2167 63.337 95.652 63.083L98.1479 61.642C98.5612 61.3991 98.5612 61.1616 98.1479 60.9187L83.2716 52.3111C83.0567 52.1841 83.0622 52.0516 83.2992 51.9136L86.6822 49.9535C87.0954 49.7106 87.0954 49.4732 86.6822 49.2302L84.6656 48.0653C84.2524 47.8223 83.8336 47.8223 83.4204 48.0653L83.4149 48.0708Z" fill="#2874C6"/>
<path opacity="0.3" d="M53.3647 63.4087L71.2108 73.7335C71.624 73.9764 71.624 74.2138 71.2108 74.4567L68.6873 75.9199C68.2741 76.1628 67.8554 76.1628 67.4421 75.9199L49.5961 65.5951C49.1828 65.3522 49.1828 65.1148 49.5961 64.8719L52.1195 63.4087C52.5328 63.1658 52.9515 63.1658 53.3647 63.4087ZM69.5468 54.768C71.2273 54.7569 72.8527 55.2042 74.4175 56.1096L83.8281 61.5536C85.3929 62.4591 86.1642 63.3977 86.1477 64.3694C86.1257 65.3412 85.3378 66.2798 83.773 67.1853L80.4451 69.1122C78.8804 70.0177 77.255 70.4759 75.5745 70.487C73.894 70.498 72.2687 70.0508 70.7039 69.1453L61.2932 63.7014C59.7285 62.7959 58.9571 61.8573 58.9736 60.8855C58.9902 59.9138 59.7836 58.9752 61.3483 58.0697L64.6762 56.1428C66.241 55.2373 67.8609 54.779 69.5468 54.768ZM70.8251 58.3899C70.1915 58.0255 69.6075 57.8433 69.073 57.8378C68.5386 57.8378 67.9545 58.02 67.3209 58.3899L65.2107 59.6101C64.5771 59.9745 64.2685 60.3113 64.274 60.615C64.285 60.9186 64.6046 61.2554 65.2382 61.6198L74.2962 66.8595C74.9299 67.2294 75.5139 67.4116 76.0318 67.4171C76.5608 67.4227 77.1338 67.2405 77.7674 66.8761L79.8776 65.6559C80.5112 65.2915 80.8253 64.9547 80.8253 64.64C80.8253 64.3253 80.5112 63.994 79.8776 63.6241L70.8196 58.3844L70.8251 58.3899ZM83.4149 45.2991L72.1915 51.792C71.7728 52.035 71.7728 52.2724 72.1915 52.5153L74.2081 53.6803C74.6213 53.9232 75.0401 53.9232 75.4588 53.6803L78.8418 51.7203C79.0567 51.5933 79.2826 51.5933 79.4974 51.7203L94.3738 60.3279C94.787 60.5708 95.2167 60.5653 95.652 60.3113L98.1479 58.8703C98.5612 58.6273 98.5612 58.3899 98.1479 58.147L83.2716 49.5394C83.0567 49.4124 83.0622 49.2799 83.2992 49.1418L86.6822 47.1818C87.0954 46.9389 87.0954 46.7014 86.6822 46.4585L84.6656 45.2935C84.2524 45.0506 83.8336 45.0506 83.4204 45.2935L83.4149 45.2991Z" fill="#2874C6"/>
<path opacity="0.4" d="M53.3647 60.6426L71.2108 70.9673C71.624 71.2103 71.624 71.4477 71.2108 71.6906L68.6873 73.1538C68.2741 73.3967 67.8554 73.3967 67.4421 73.1538L49.5961 62.829C49.1828 62.5861 49.1828 62.3487 49.5961 62.1057L52.1195 60.6426C52.5328 60.3997 52.9515 60.3997 53.3647 60.6426ZM69.5468 52.0019C71.2273 51.9908 72.8527 52.438 74.4175 53.3435L83.8281 58.7875C85.3929 59.693 86.1642 60.6316 86.1477 61.6033C86.1257 62.5806 85.3378 63.5137 83.773 64.4191L80.4451 66.3461C78.8804 67.2515 77.255 67.7098 75.5745 67.7209C73.894 67.7319 72.2687 67.2847 70.7039 66.3792L61.2932 60.9352C59.7285 60.0298 58.9571 59.0911 58.9736 58.1194C58.9957 57.1477 59.7836 56.2091 61.3483 55.3036L64.6762 53.3767C66.241 52.4712 67.8609 52.0129 69.5468 52.0019ZM70.8251 55.6238C70.1915 55.2594 69.6075 55.0772 69.073 55.0717C68.5386 55.0717 67.9545 55.2539 67.3209 55.6238L65.2107 56.844C64.5771 57.2084 64.2685 57.5452 64.274 57.8489C64.285 58.1525 64.6046 58.4893 65.2382 58.8537L74.2962 64.0934C74.9299 64.4633 75.5139 64.6455 76.0318 64.651C76.5608 64.6566 77.1338 64.4744 77.7674 64.11L79.8776 62.8898C80.5112 62.5254 80.8253 62.1886 80.8253 61.8739C80.8253 61.5591 80.5112 61.2279 79.8776 60.8579L70.8196 55.6183L70.8251 55.6238ZM83.4149 42.5329L72.1915 49.0259C71.7728 49.2689 71.7728 49.5063 72.1915 49.7492L74.2081 50.9142C74.6213 51.1571 75.0401 51.1571 75.4588 50.9142L78.8418 48.9541C79.0567 48.8272 79.2826 48.8272 79.4974 48.9541L94.3738 57.5618C94.787 57.8047 95.2167 57.7992 95.652 57.5452L98.1479 56.1042C98.5612 55.8612 98.5612 55.6238 98.1479 55.3809L83.2716 46.7733C83.0567 46.6463 83.0622 46.5138 83.2992 46.3757L86.6822 44.4157C87.0954 44.1727 87.0954 43.9353 86.6822 43.6924L84.6656 42.5274C84.2524 42.2845 83.8336 42.2845 83.4204 42.5274L83.4149 42.5329Z" fill="#2874C6"/>
<path opacity="0.5" d="M53.3647 57.8765L71.2108 68.2012C71.624 68.4442 71.624 68.6816 71.2108 68.9245L68.6873 70.3876C68.2741 70.6306 67.8554 70.6306 67.4421 70.3876L49.5961 60.0629C49.1828 59.82 49.1828 59.5826 49.5961 59.3396L52.1195 57.8765C52.5328 57.6336 52.9515 57.6336 53.3647 57.8765ZM69.5468 49.2358C71.2273 49.2247 72.8527 49.6719 74.4175 50.5774L83.8281 56.0214C85.3929 56.9268 86.1642 57.8655 86.1477 58.8372C86.1257 59.8089 85.3378 60.7475 83.773 61.653L80.4451 63.5799C78.8804 64.4854 77.255 64.9437 75.5745 64.9547C73.894 64.9658 72.2687 64.5186 70.7039 63.6131L61.2932 58.1691C59.7285 57.2636 58.9571 56.325 58.9736 55.3533C58.9957 54.3816 59.7836 53.4429 61.3483 52.5375L64.6762 50.6105C66.241 49.7051 67.8609 49.2468 69.5468 49.2358ZM70.8251 52.8577C70.1915 52.4933 69.6075 52.3111 69.073 52.3056C68.5386 52.3056 67.9545 52.4878 67.3209 52.8577L65.2107 54.0779C64.5771 54.4423 64.2685 54.7791 64.274 55.0828C64.285 55.3864 64.6046 55.7232 65.2382 56.0876L74.2962 61.3273C74.9299 61.6972 75.5139 61.8794 76.0318 61.8849C76.5608 61.8904 77.1338 61.7082 77.7674 61.3438L79.8776 60.1236C80.5112 59.7592 80.8253 59.4224 80.8253 59.1077C80.8253 58.793 80.5112 58.4618 79.8776 58.0918L70.8196 52.8522L70.8251 52.8577ZM83.4149 39.7668L72.1915 46.2598C71.7728 46.5027 71.7728 46.7401 72.1915 46.9831L74.2081 48.1481C74.6213 48.391 75.0401 48.391 75.4588 48.1481L78.8418 46.188C79.0567 46.061 79.2826 46.061 79.4974 46.188L94.3738 54.7956C94.787 55.0386 95.2167 55.0331 95.652 54.7791L98.1479 53.338C98.5612 53.0951 98.5612 52.8577 98.1479 52.6148L83.2716 44.0071C83.0567 43.8801 83.0622 43.7476 83.2992 43.6096L86.6822 41.6496C87.0954 41.4066 87.0954 41.1692 86.6822 40.9263L84.6656 39.7613C84.2524 39.5184 83.8336 39.5184 83.4204 39.7613L83.4149 39.7668Z" fill="#2874C6"/>
<path opacity="0.6" d="M53.3647 55.1048L71.2108 65.4295C71.624 65.6724 71.624 65.9098 71.2108 66.1528L68.6873 67.6159C68.2741 67.8588 67.8554 67.8588 67.4421 67.6159L49.5961 57.2912C49.1828 57.0483 49.1828 56.8108 49.5961 56.5679L52.1195 55.1048C52.5328 54.8618 52.9515 54.8618 53.3647 55.1048ZM69.5468 46.464C71.2273 46.453 72.8527 46.9002 74.4175 47.8057L83.8281 53.2496C85.3929 54.1551 86.1642 55.0937 86.1477 56.0655C86.1257 57.0427 85.3378 57.9758 83.773 58.8813L80.4451 60.8082C78.8804 61.7137 77.255 62.172 75.5745 62.183C73.894 62.194 72.2687 61.7468 70.7039 60.8413L61.2932 55.3974C59.7285 54.4919 58.9571 53.5533 58.9736 52.5816C58.9957 51.6098 59.7836 50.6712 61.3483 49.7657L64.6762 47.8388C66.241 46.9333 67.8609 46.4751 69.5468 46.464ZM70.8251 50.086C70.1915 49.7216 69.6075 49.5394 69.073 49.5338C68.5386 49.5338 67.9545 49.716 67.3209 50.086L65.2107 51.3062C64.5771 51.6706 64.2685 52.0074 64.274 52.311C64.285 52.6147 64.6046 52.9515 65.2382 53.3159L74.2962 58.5555C74.9299 58.9255 75.5139 59.1077 76.0318 59.1132C76.5608 59.1187 77.1338 58.9365 77.7674 58.5721L79.8776 57.3519C80.5112 56.9875 80.8253 56.6507 80.8253 56.336C80.8253 56.0213 80.5112 55.69 79.8776 55.3201L70.8196 50.0804L70.8251 50.086ZM83.4149 36.9951L72.1915 43.4881C71.7728 43.731 71.7728 43.9684 72.1915 44.2114L74.2081 45.3763C74.6213 45.6193 75.0401 45.6193 75.4588 45.3763L78.8418 43.4163C79.0567 43.2893 79.2826 43.2893 79.4974 43.4163L94.3738 52.0239C94.787 52.2669 95.2167 52.2613 95.652 52.0074L98.1479 50.5663C98.5612 50.3234 98.5612 50.086 98.1479 49.843L83.2716 41.2354C83.0567 41.1084 83.0622 40.9759 83.2992 40.8379L86.6822 38.8778C87.0954 38.6349 87.0954 38.3975 86.6822 38.1546L84.6656 36.9896C84.2524 36.7466 83.8336 36.7466 83.4204 36.9896L83.4149 36.9951Z" fill="#2874C6"/>
<path opacity="0.7" d="M53.3647 52.3387L71.2108 62.6634C71.624 62.9063 71.624 63.1437 71.2108 63.3867L68.6873 64.8498C68.2741 65.0927 67.8554 65.0927 67.4421 64.8498L49.5961 54.5251C49.1828 54.2821 49.1828 54.0447 49.5961 53.8018L52.1195 52.3387C52.5328 52.0957 52.9515 52.0957 53.3647 52.3387ZM69.5468 43.6979C71.2273 43.6869 72.8527 44.1341 74.4175 45.0396L83.8281 50.4835C85.3929 51.389 86.1642 52.3276 86.1477 53.2994C86.1257 54.2766 85.3378 55.2097 83.773 56.1152L80.4451 58.0421C78.8804 58.9476 77.255 59.4058 75.5745 59.4169C73.894 59.4279 72.2687 58.9807 70.7039 58.0752L61.2932 52.6313C59.7285 51.7258 58.9571 50.7872 58.9736 49.8155C58.9957 48.8437 59.7836 47.9051 61.3483 46.9996L64.6762 45.0727C66.241 44.1672 67.8609 43.709 69.5468 43.6979ZM70.8251 47.3198C70.1915 46.9554 69.6075 46.7732 69.073 46.7677C68.5386 46.7677 67.9545 46.9499 67.3209 47.3198L65.2107 48.54C64.5771 48.9044 64.2685 49.2412 64.274 49.5449C64.285 49.8486 64.6046 50.1854 65.2382 50.5498L74.2962 55.7894C74.9299 56.1594 75.5139 56.3416 76.0318 56.3471C76.5608 56.3526 77.1338 56.1704 77.7674 55.806L79.8776 54.5858C80.5112 54.2214 80.8253 53.8846 80.8253 53.5699C80.8253 53.2552 80.5112 52.9239 79.8776 52.554L70.8196 47.3143L70.8251 47.3198ZM83.4149 34.229L72.1915 40.722C71.7728 40.9649 71.7728 41.2023 72.1915 41.4452L74.2081 42.6102C74.6213 42.8532 75.0401 42.8532 75.4588 42.6102L78.8418 40.6502C79.0567 40.5232 79.2826 40.5232 79.4974 40.6502L94.3738 49.2578C94.787 49.5007 95.2167 49.4952 95.652 49.2412L98.1479 47.8002C98.5612 47.5573 98.5612 47.3198 98.1479 47.0769L83.2716 38.4693C83.0567 38.3423 83.0622 38.2098 83.2992 38.0718L86.6822 36.1117C87.0954 35.8688 87.0954 35.6314 86.6822 35.3884L84.6656 34.2235C84.2524 33.9805 83.8336 33.9805 83.4204 34.2235L83.4149 34.229Z" fill="#2874C6"/>
<path opacity="0.8" d="M53.3647 49.5725L71.2108 59.8973C71.624 60.1402 71.624 60.3776 71.2108 60.6206L68.6873 62.0837C68.2741 62.3266 67.8554 62.3266 67.4421 62.0837L49.5961 51.759C49.1828 51.516 49.1828 51.2786 49.5961 51.0357L52.1195 49.5725C52.5328 49.3296 52.9515 49.3296 53.3647 49.5725ZM69.5468 40.9318C71.2273 40.9208 72.8527 41.368 74.4175 42.2735L83.8281 47.7174C85.3929 48.6229 86.1642 49.5615 86.1477 50.5332C86.1257 51.5105 85.3378 52.4436 83.773 53.3491L80.4451 55.276C78.8804 56.1815 77.255 56.6397 75.5745 56.6508C73.894 56.6618 72.2687 56.2146 70.7039 55.3091L61.2932 49.8652C59.7285 48.9597 58.9571 48.0211 58.9736 47.0493C58.9957 46.0776 59.7836 45.139 61.3483 44.2335L64.6762 42.3066C66.241 41.4011 67.8609 40.9428 69.5468 40.9318ZM70.8251 44.5537C70.1915 44.1893 69.6075 44.0071 69.073 44.0016C68.5386 44.0016 67.9545 44.1838 67.3209 44.5537L65.2107 45.7739C64.5771 46.1383 64.2685 46.4751 64.274 46.7788C64.285 47.0825 64.6046 47.4193 65.2382 47.7837L74.2962 53.0233C74.9299 53.3932 75.5139 53.5754 76.0318 53.581C76.5608 53.5865 77.1338 53.4043 77.7674 53.0399L79.8776 51.8197C80.5112 51.4553 80.8253 51.1185 80.8253 50.8038C80.8253 50.4891 80.5112 50.1578 79.8776 49.7879L70.8196 44.5482L70.8251 44.5537ZM83.4149 31.4629L72.1915 37.9559C71.7728 38.1988 71.7728 38.4362 72.1915 38.6791L74.2081 39.8441C74.6213 40.087 75.0401 40.087 75.4588 39.8441L78.8418 37.8841C79.0567 37.7571 79.2826 37.7571 79.4974 37.8841L94.3738 46.4917C94.787 46.7346 95.2167 46.7291 95.652 46.4751L98.1479 45.0341C98.5612 44.7911 98.5612 44.5537 98.1479 44.3108L83.2716 35.7032C83.0567 35.5762 83.0622 35.4437 83.2992 35.3057L86.6822 33.3456C87.0954 33.1027 87.0954 32.8653 86.6822 32.6223L84.6656 31.4573C84.2524 31.2144 83.8336 31.2144 83.4204 31.4573L83.4149 31.4629Z" fill="#2874C6"/>
<path opacity="0.9" d="M53.3647 46.8064L71.2108 57.1312C71.624 57.3741 71.624 57.6115 71.2108 57.8544L68.6873 59.3176C68.2741 59.5605 67.8554 59.5605 67.4421 59.3176L49.5961 48.9928C49.1828 48.7499 49.1828 48.5125 49.5961 48.2696L52.1195 46.8064C52.5328 46.5635 52.9515 46.5635 53.3647 46.8064ZM69.5468 38.1657C71.2273 38.1546 72.8527 38.6019 74.4175 39.5073L83.8281 44.9513C85.3929 45.8568 86.1642 46.7954 86.1477 47.7671C86.1257 48.7444 85.3378 49.6775 83.773 50.583L80.4451 52.5099C78.8804 53.4154 77.255 53.8736 75.5745 53.8847C73.894 53.8957 72.2687 53.4485 70.7039 52.543L61.2932 47.0991C59.7285 46.1936 58.9571 45.255 58.9736 44.2832C58.9957 43.3115 59.7836 42.3729 61.3483 41.4674L64.6762 39.5405C66.241 38.635 67.8609 38.1767 69.5468 38.1657ZM70.8251 41.7876C70.1915 41.4232 69.6075 41.241 69.073 41.2355C68.5386 41.2355 67.9545 41.4177 67.3209 41.7876L65.2107 43.0078C64.5771 43.3722 64.2685 43.709 64.274 44.0127C64.285 44.3164 64.6046 44.6531 65.2382 45.0175L74.2962 50.2572C74.9299 50.6271 75.5139 50.8093 76.0318 50.8149C76.5608 50.8204 77.1338 50.6382 77.7674 50.2738L79.8776 49.0536C80.5112 48.6892 80.8253 48.3524 80.8253 48.0377C80.8253 47.723 80.5112 47.3917 79.8776 47.0218L70.8196 41.7821L70.8251 41.7876ZM83.4149 28.6968L72.1915 35.1897C71.7728 35.4327 71.7728 35.6701 72.1915 35.913L74.2081 37.078C74.6213 37.3209 75.0401 37.3209 75.4588 37.078L78.8418 35.118C79.0567 34.991 79.2826 34.991 79.4974 35.118L94.3738 43.7256C94.787 43.9685 95.2167 43.963 95.652 43.709L98.1479 42.268C98.5612 42.025 98.5612 41.7876 98.1479 41.5447L83.2716 32.9371C83.0567 32.8101 83.0622 32.6776 83.2992 32.5395L86.6822 30.5795C87.0954 30.3366 87.0954 30.0992 86.6822 29.8562L84.6656 28.6912C84.2524 28.4483 83.8336 28.4483 83.4204 28.6912L83.4149 28.6968Z" fill="#2874C6"/>
<path opacity="0.9" d="M53.3647 44.0347L71.2108 54.3594C71.624 54.6024 71.624 54.8398 71.2108 55.0827L68.6873 56.5458C68.2741 56.7888 67.8554 56.7888 67.4421 56.5458L49.5961 46.2211C49.1828 45.9782 49.1828 45.7408 49.5961 45.4978L52.1195 44.0347C52.5328 43.7918 52.9515 43.7918 53.3647 44.0347ZM69.5468 35.394C71.2273 35.3829 72.8527 35.8301 74.4175 36.7356L83.8281 42.1796C85.3929 43.085 86.1642 44.0237 86.1477 44.9954C86.1257 45.9727 85.3378 46.9057 83.773 47.8112L80.4451 49.7381C78.8804 50.6436 77.255 51.1019 75.5745 51.1129C73.894 51.124 72.2687 50.6768 70.7039 49.7713L61.2932 44.3273C59.7285 43.4218 58.9571 42.4832 58.9736 41.5115C58.9957 40.5398 59.7836 39.6011 61.3483 38.6957L64.6762 36.7687C66.241 35.8633 67.8609 35.405 69.5468 35.394ZM70.8251 39.0159C70.1915 38.6515 69.6075 38.4693 69.073 38.4638C68.5386 38.4638 67.9545 38.646 67.3209 39.0159L65.2107 40.2361C64.5771 40.6005 64.2685 40.9373 64.274 41.241C64.285 41.5446 64.6046 41.8814 65.2382 42.2458L74.2962 47.4855C74.9299 47.8554 75.5139 48.0376 76.0318 48.0431C76.5608 48.0486 77.1338 47.8664 77.7674 47.502L79.8776 46.2819C80.5112 45.9174 80.8253 45.5807 80.8253 45.2659C80.8253 44.9512 80.5112 44.62 79.8776 44.25L70.8196 39.0104L70.8251 39.0159ZM83.4149 25.925L72.1915 32.418C71.7728 32.6609 71.7728 32.8984 72.1915 33.1413L74.2081 34.3063C74.6213 34.5492 75.0401 34.5492 75.4588 34.3063L78.8418 32.3462C79.0567 32.2192 79.2826 32.2192 79.4974 32.3462L94.3738 40.9538C94.787 41.1968 95.2167 41.1913 95.652 40.9373L98.1479 39.4962C98.5612 39.2533 98.5612 39.0159 98.1479 38.773L83.2716 30.1653C83.0567 30.0384 83.0622 29.9058 83.2992 29.7678L86.6822 27.8078C87.0954 27.5648 87.0954 27.3274 86.6822 27.0845L84.6656 25.9195C84.2524 25.6766 83.8336 25.6766 83.4204 25.9195L83.4149 25.925Z" fill="#2874C6"/>
<path d="M53.3647 41.2686L71.2108 51.5933C71.624 51.8362 71.624 52.0737 71.2108 52.3166L68.6873 53.7797C68.2741 54.0227 67.8554 54.0227 67.4421 53.7797L49.5961 43.455C49.1828 43.2121 49.1828 42.9747 49.5961 42.7317L52.1195 41.2686C52.5328 41.0257 52.9515 41.0257 53.3647 41.2686ZM69.5468 32.6278C71.2273 32.6168 72.8527 33.064 74.4175 33.9695L83.8281 39.4135C85.3929 40.3189 86.1642 41.2575 86.1477 42.2293C86.1257 43.2065 85.3378 44.1396 83.773 45.0451L80.4451 46.972C78.8804 47.8775 77.255 48.3358 75.5745 48.3468C73.894 48.3579 72.2687 47.9106 70.7039 47.0052L61.2932 41.5612C59.7285 40.6557 58.9571 39.7171 58.9736 38.7454C58.9957 37.7736 59.7836 36.835 61.3483 35.9295L64.6762 34.0026C66.241 33.0971 67.8609 32.6389 69.5468 32.6278ZM70.8251 36.2498C70.1915 35.8854 69.6075 35.7032 69.073 35.6977C68.5386 35.6977 67.9545 35.8799 67.3209 36.2498L65.2107 37.47C64.5771 37.8344 64.2685 38.1712 64.274 38.4748C64.285 38.7785 64.6046 39.1153 65.2382 39.4797L74.2962 44.7194C74.9299 45.0893 75.5139 45.2715 76.0318 45.277C76.5608 45.2825 77.1338 45.1003 77.7674 44.7359L79.8776 43.5157C80.5112 43.1513 80.8253 42.8145 80.8253 42.4998C80.8253 42.1851 80.5112 41.8538 79.8776 41.4839L70.8196 36.2443L70.8251 36.2498ZM83.4149 23.1589L72.1915 29.6519C71.7728 29.8948 71.7728 30.1322 72.1915 30.3752L74.2081 31.5402C74.6213 31.7831 75.0401 31.7831 75.4588 31.5402L78.8418 29.5801C79.0567 29.4531 79.2826 29.4531 79.4974 29.5801L94.3738 38.1877C94.787 38.4307 95.2167 38.4251 95.652 38.1712L98.1479 36.7301C98.5612 36.4872 98.5612 36.2498 98.1479 36.0068L83.2716 27.3992C83.0567 27.2722 83.0622 27.1397 83.2992 27.0017L86.6822 25.0417C87.0954 24.7987 87.0954 24.5613 86.6822 24.3184L84.6656 23.1534C84.2524 22.9105 83.8336 22.9105 83.4204 23.1534L83.4149 23.1589Z" fill="#3EADFF"/>
<path d="M53.3647 41.2686L71.2108 51.5933C71.624 51.8362 71.624 52.0737 71.2108 52.3166L68.6873 53.7797C68.2741 54.0227 67.8554 54.0227 67.4421 53.7797L49.5961 43.455C49.1828 43.2121 49.1828 42.9747 49.5961 42.7317L52.1195 41.2686C52.5328 41.0257 52.9515 41.0257 53.3647 41.2686ZM69.5468 32.6278C71.2273 32.6168 72.8527 33.064 74.4175 33.9695L83.8281 39.4135C85.3929 40.3189 86.1642 41.2575 86.1477 42.2293C86.1257 43.2065 85.3378 44.1396 83.773 45.0451L80.4451 46.972C78.8804 47.8775 77.255 48.3358 75.5745 48.3468C73.894 48.3579 72.2687 47.9106 70.7039 47.0052L61.2932 41.5612C59.7285 40.6557 58.9571 39.7171 58.9736 38.7454C58.9957 37.7736 59.7836 36.835 61.3483 35.9295L64.6762 34.0026C66.241 33.0971 67.8609 32.6389 69.5468 32.6278ZM70.8251 36.2498C70.1915 35.8854 69.6075 35.7032 69.073 35.6977C68.5386 35.6977 67.9545 35.8799 67.3209 36.2498L65.2107 37.47C64.5771 37.8344 64.2685 38.1712 64.274 38.4748C64.285 38.7785 64.6046 39.1153 65.2382 39.4797L74.2962 44.7194C74.9299 45.0893 75.5139 45.2715 76.0318 45.277C76.5608 45.2825 77.1338 45.1003 77.7674 44.7359L79.8776 43.5157C80.5112 43.1513 80.8253 42.8145 80.8253 42.4998C80.8253 42.1851 80.5112 41.8538 79.8776 41.4839L70.8196 36.2443L70.8251 36.2498ZM83.4149 23.1589L72.1915 29.6519C71.7728 29.8948 71.7728 30.1322 72.1915 30.3752L74.2081 31.5402C74.6213 31.7831 75.0401 31.7831 75.4588 31.5402L78.8418 29.5801C79.0567 29.4531 79.2826 29.4531 79.4974 29.5801L94.3738 38.1877C94.787 38.4307 95.2167 38.4251 95.652 38.1712L98.1479 36.7301C98.5612 36.4872 98.5612 36.2498 98.1479 36.0068L83.2716 27.3992C83.0567 27.2722 83.0622 27.1397 83.2992 27.0017L86.6822 25.0417C87.0954 24.7987 87.0954 24.5613 86.6822 24.3184L84.6656 23.1534C84.2524 22.9105 83.8336 22.9105 83.4204 23.1534L83.4149 23.1589Z" fill="#88B0FF"/>
</g>
<defs>
<filter id="filter0_d_1_10099" x="-5" y="-4.94202" width="171" height="142" filterUnits="userSpaceOnUse" color-interpolation-filters="sRGB">
<feFlood flood-opacity="0" result="BackgroundImageFix"/>
<feColorMatrix in="SourceAlpha" type="matrix" values="0 0 0 0 0 0 0 0 0 0 0 0 0 0 0 0 0 0 127 0" result="hardAlpha"/>
<feOffset dy="7"/>
<feGaussianBlur stdDeviation="6"/>
<feComposite in2="hardAlpha" operator="out"/>
<feColorMatrix type="matrix" values="0 0 0 0 0 0 0 0 0 0 0 0 0 0 0 0 0 0 0.25 0"/>
<feBlend mode="normal" in2="BackgroundImageFix" result="effect1_dropShadow_1_10099"/>
<feBlend mode="normal" in="SourceGraphic" in2="effect1_dropShadow_1_10099" result="shape"/>
</filter>
</defs>
</svg>
